<?xml version="1.0" encoding="UTF-8"?>
<svg xmlns="http://www.w3.org/2000/svg"
     viewBox="12243.4 -4605.6 3205.3 2251.0"
     pointer-events="none">
  <globalCoordinateSystem srsName="http://purl.org/crs/84" transform="matrix(100,0,0,-100,0,0)" />

  <g id="hazard-flood" fill="#3b82f6" fill-opacity="0.28" stroke="#1d4ed8" stroke-opacity="0.70" stroke-width="0.10" pointer-events="none">
    <path d="M 14014.27 -3992.30 L 14014.22 -3992.40 L 14014.26 -3992.30 L 14014.27 -3992.30 Z M 14014.33 -3992.42 L 14014.25 -3992.42 L 14014.33 -3992.42 L 14014.33 -3992.42 Z M 14013.12 -3993.40 L 14013.07 -3993.28 L 14013.49 -3993.11 L 14013.39 -3993.30 L 14013.31 -3993.25 L 14013.13 -3993.40 L 14013.12 -3993.40 Z M 14012.67 -3993.75 L 14012.87 -3993.63 L 14012.67 -3993.75 L 14012.67 -3993.75 Z M 14013.29 -3993.77 L 14013.12 -3993.73 L 14013.29 -3993.78 L 14013.29 -3993.77 Z M 14012.43 -3993.74 L 14012.25 -3993.74 L 14012.46 -3993.59 L 14012.79 -3993.62 L 14012.43 -3993.74 L 14012.43 -3993.74 Z M 14012.55 -3993.80 L 14012.46 -3993.86 L 14012.55 -3993.81 L 14012.55 -3993.80 Z M 14012.63 -3993.92 L 14012.55 -3993.97 L 14012.63 -3993.92 L 14012.63 -3993.92 Z M 14014.80 -3992.57 L 14014.67 -3992.78 L 14013.81 -3992.52 L 14013.46 -3992.75 L 14013.48 -3992.95 L 14013.23 -3992.82 L 14013.29 -3992.62 L 14013.39 -3992.62 L 14013.33 -3992.72 L 14013.56 -3992.47 L 14013.96 -3992.39 L 14014.77 -3992.39 L 14014.79 -3992.58 L 14014.80 -3992.57 Z M 14012.47 -3993.82 L 14012.28 -3993.81 L 14012.48 -3993.72 L 14012.46 -3993.82 L 14012.47 -3993.82 Z M 14012.63 -3994.66 L 14012.34 -3994.58 L 14012.01 -3994.03 L 14011.36 -3993.99 L 14011.24 -3994.07 L 14011.20 -3993.95 L 14011.53 -3994.00 L 14011.69 -3993.92 L 14011.74 -3994.00 L 14011.83 -3993.86 L 14011.93 -3993.87 L 14011.85 -3993.97 L 14012.02 -3993.92 L 14011.96 -3993.99 L 14012.11 -3994.05 L 14012.47 -3993.94 L 14012.58 -3993.73 L 14012.85 -3993.61 L 14013.03 -3993.67 L 14013.04 -3993.56 L 14012.85 -3993.59 L 14012.76 -3993.44 L 14013.12 -3993.22 L 14013.01 -3993.36 L 14013.08 -3993.42 L 14013.39 -3993.28 L 14013.54 -3992.94 L 14013.64 -3993.04 L 14013.51 -3993.22 L 14013.51 -3993.48 L 14013.76 -3993.66 L 14013.65 -3993.75 L 14013.76 -3993.79 L 14013.78 -3993.69 L 14013.74 -3993.98 L 14013.19 -3994.32 L 14013.20 -3994.09 L 14013.07 -3994.09 L 14013.04 -3994.31 L 14012.88 -3994.36 L 14012.87 -3994.12 L 14012.52 -3994.00 L 14012.64 -3994.16 L 14012.51 -3994.36 L 14012.56 -3994.50 L 14012.66 -3994.36 L 14012.71 -3994.45 L 14012.86 -3994.40 L 14012.61 -3994.66 L 14012.63 -3994.66 Z M 14013.54 -3993.15 L 14013.56 -3993.01 L 14013.54 -3993.14 L 14013.54 -3993.15 Z M 14013.56 -3993.25 L 14013.51 -3993.31 L 14013.55 -3993.24 L 14013.56 -3993.25 Z M 14013.20 -3994.17 L 14013.08 -3994.33 L 14013.04 -3994.10 L 14013.20 -3994.07 L 14013.13 -3994.12 L 14013.21 -3994.17 L 14013.20 -3994.17 Z" />
  </g>
  <g id="hazard-tsunami-inundation" fill="#a855f7" fill-opacity="0.28" stroke="#7e22ce" stroke-opacity="0.70" stroke-width="0.10" pointer-events="none">

  </g>
  <g id="hazard-landslide-warning" fill="#f97316" fill-opacity="0.22" stroke="#c2410c" stroke-opacity="0.80" stroke-width="0.10" pointer-events="none">
    <path d="M 14012.19 -3990.68 L 14012.17 -3990.72 L 14012.20 -3990.69 L 14012.19 -3990.68 Z M 14013.92 -3989.99 L 14013.81 -3989.97 L 14013.66 -3990.07 L 14013.75 -3990.08 L 14013.91 -3990.00 L 14013.92 -3989.99 Z M 14013.99 -3988.80 L 14014.12 -3988.71 L 14014.00 -3988.77 L 14013.89 -3988.72 L 14013.88 -3988.77 L 14013.96 -3988.79 L 14013.99 -3988.80 Z M 14014.16 -3988.71 L 14014.22 -3988.71 L 14014.17 -3988.67 L 14014.16 -3988.70 L 14014.16 -3988.71 Z M 14013.84 -3988.47 L 14013.97 -3988.56 L 14013.96 -3988.51 L 14013.85 -3988.48 L 14013.84 -3988.47 Z M 14013.97 -3988.59 L 14013.96 -3988.62 L 14014.01 -3988.61 L 14013.97 -3988.59 L 14013.97 -3988.59 Z M 14014.01 -3988.64 L 14013.98 -3988.67 L 14014.02 -3988.67 L 14014.01 -3988.64 Z M 14013.97 -3988.67 L 14013.88 -3988.72 L 14013.95 -3988.73 L 14013.98 -3988.68 L 14013.97 -3988.67 Z M 14012.77 -3990.27 L 14012.72 -3990.32 L 14012.85 -3990.35 L 14012.93 -3990.31 L 14012.80 -3990.26 L 14012.77 -3990.27 Z M 14012.95 -3990.20 L 14012.76 -3990.24 L 14012.90 -3990.36 L 14012.92 -3990.30 L 14012.95 -3990.20 Z M 14011.21 -3990.55 L 14011.17 -3990.56 L 14011.22 -3990.56 L 14011.21 -3990.55 Z M 14011.36 -3990.52 L 14011.45 -3990.49 L 14011.45 -3990.43 L 14011.34 -3990.47 L 14011.35 -3990.52 L 14011.36 -3990.52 Z M 14010.52 -3990.27 L 14010.45 -3990.30 L 14010.52 -3990.28 L 14010.52 -3990.27 Z M 14011.42 -3990.03 L 14011.47 -3989.96 L 14011.40 -3989.98 L 14011.42 -3990.04 L 14011.42 -3990.03 Z M 14011.53 -3989.78 L 14011.46 -3989.78 L 14011.52 -3989.80 L 14011.53 -3989.78 Z M 14011.53 -3989.69 L 14011.49 -3989.67 L 14011.51 -3989.69 L 14011.53 -3989.69 Z M 14010.72 -3992.28 L 14010.56 -3992.22 L 14010.55 -3992.26 L 14010.69 -3992.30 L 14010.72 -3992.28 Z M 14010.70 -3992.31 L 14010.68 -3992.35 L 14010.71 -3992.31 L 14010.70 -3992.31 Z M 14010.63 -3992.44 L 14010.67 -3992.36 L 14010.58 -3992.35 L 14010.54 -3992.45 L 14010.60 -3992.49 L 14010.64 -3992.45 L 14010.63 -3992.44 Z M 14010.79 -3992.62 L 14010.72 -3992.57 L 14010.74 -3992.61 L 14010.67 -3992.64 L 14010.76 -3992.72 L 14010.77 -3992.63 L 14010.79 -3992.62 Z" />
  </g>
  <g id="hazard-landslide-special" fill="#ef4444" fill-opacity="0.35" stroke="#991b1b" stroke-opacity="0.90" stroke-width="0.12" pointer-events="none">
    <path d="M 14012.16 -3990.70 L 14012.20 -3990.69 L 14012.16 -3990.70 L 14012.16 -3990.70 Z M 14013.67 -3990.07 L 14013.91 -3990.00 L 14013.81 -3989.99 L 14013.67 -3990.07 L 14013.67 -3990.07 Z M 14014.05 -3988.76 L 14014.01 -3988.77 L 14014.05 -3988.76 L 14014.05 -3988.76 Z M 14014.16 -3988.70 L 14014.20 -3988.70 L 14014.16 -3988.70 L 14014.16 -3988.70 Z M 14013.86 -3988.48 L 14013.91 -3988.52 L 14013.85 -3988.49 L 14013.86 -3988.48 Z M 14012.74 -3990.33 L 14012.90 -3990.33 L 14012.76 -3990.32 L 14012.74 -3990.33 Z M 14011.22 -3990.57 L 14011.17 -3990.56 L 14011.21 -3990.57 L 14011.22 -3990.57 Z M 14011.48 -3990.44 L 14011.34 -3990.50 L 14011.45 -3990.46 L 14011.48 -3990.44 Z M 14011.52 -3989.80 L 14011.46 -3989.77 L 14011.51 -3989.80 L 14011.52 -3989.80 Z M 14010.69 -3992.31 L 14010.61 -3992.24 L 14010.55 -3992.25 L 14010.68 -3992.31 L 14010.69 -3992.31 Z M 14010.64 -3992.46 L 14010.59 -3992.42 L 14010.67 -3992.37 L 14010.60 -3992.36 L 14010.56 -3992.41 L 14010.61 -3992.48 L 14010.64 -3992.46 Z M 14010.78 -3992.70 L 14010.74 -3992.57 L 14010.76 -3992.61 L 14010.69 -3992.64 L 14010.78 -3992.71 L 14010.78 -3992.70 Z" />
  </g>
</svg>
