<?xml version="1.0" encoding="UTF-8"?>
<svg xmlns="http://www.w3.org/2000/svg"
     viewBox="12243.4 -4605.6 3205.3 2251.0"
     pointer-events="none">
  <globalCoordinateSystem srsName="http://purl.org/crs/84" transform="matrix(100,0,0,-100,0,0)" />

  <g id="hazard-flood" fill="#3b82f6" fill-opacity="0.28" stroke="#1d4ed8" stroke-opacity="0.70" stroke-width="0.10" pointer-events="none">

  </g>
  <g id="hazard-tsunami-inundation" fill="#a855f7" fill-opacity="0.28" stroke="#7e22ce" stroke-opacity="0.70" stroke-width="0.10" pointer-events="none">

  </g>
  <g id="hazard-landslide-warning" fill="#f97316" fill-opacity="0.22" stroke="#c2410c" stroke-opacity="0.80" stroke-width="0.10" pointer-events="none">
    <path d="M 13329.71 -3357.54 L 13329.76 -3357.57 L 13329.80 -3357.53 L 13329.65 -3357.46 L 13329.71 -3357.54 L 13329.71 -3357.54 Z M 13329.79 -3357.70 L 13329.81 -3357.59 L 13329.76 -3357.52 L 13329.67 -3357.62 L 13329.77 -3357.69 L 13329.79 -3357.70 Z M 13329.88 -3357.31 L 13329.88 -3357.22 L 13329.89 -3357.31 L 13329.88 -3357.31 Z M 13329.93 -3357.31 L 13329.95 -3357.24 L 13329.88 -3357.25 L 13329.92 -3357.31 L 13329.93 -3357.31 Z M 13329.89 -3357.28 L 13329.90 -3357.35 L 13329.89 -3357.28 L 13329.89 -3357.28 Z M 13330.42 -3358.81 L 13330.27 -3358.82 L 13330.35 -3358.90 L 13330.42 -3358.82 L 13330.42 -3358.81 Z M 13330.39 -3359.04 L 13330.44 -3359.00 L 13330.34 -3358.86 L 13330.24 -3358.95 L 13330.35 -3359.03 L 13330.39 -3359.04 Z M 13325.53 -3356.36 L 13325.67 -3356.44 L 13325.74 -3356.41 L 13325.54 -3356.36 L 13325.53 -3356.36 Z M 13325.73 -3356.48 L 13325.72 -3356.42 L 13325.57 -3356.45 L 13325.69 -3356.52 L 13325.73 -3356.48 Z M 13325.65 -3356.52 L 13325.66 -3356.61 L 13325.66 -3356.52 L 13325.65 -3356.52 Z M 13325.62 -3356.69 L 13325.68 -3356.64 L 13325.61 -3356.64 L 13325.62 -3356.68 L 13325.62 -3356.69 Z M 13325.65 -3356.68 L 13325.68 -3356.64 L 13325.65 -3356.68 L 13325.65 -3356.68 Z M 13328.75 -3356.93 L 13328.87 -3356.88 L 13328.59 -3356.79 L 13328.76 -3356.90 L 13328.75 -3356.93 Z M 13328.84 -3357.02 L 13328.83 -3356.91 L 13328.77 -3356.89 L 13328.71 -3356.96 L 13328.85 -3357.03 L 13328.84 -3357.02 Z M 13329.86 -3357.35 L 13329.67 -3357.33 L 13329.85 -3357.35 L 13329.86 -3357.35 Z M 13329.84 -3357.41 L 13329.79 -3357.38 L 13329.84 -3357.41 L 13329.84 -3357.41 Z M 13329.90 -3357.38 L 13329.84 -3357.34 L 13329.89 -3357.39 L 13329.90 -3357.38 Z M 13329.87 -3357.44 L 13329.81 -3357.38 L 13329.79 -3357.49 L 13329.85 -3357.47 L 13329.87 -3357.44 Z M 13327.66 -3356.66 L 13327.66 -3356.72 L 13327.79 -3356.67 L 13327.66 -3356.66 L 13327.66 -3356.66 Z M 13327.57 -3356.71 L 13327.53 -3356.71 L 13327.55 -3356.76 L 13327.57 -3356.72 L 13327.57 -3356.71 Z M 13327.56 -3356.77 L 13327.58 -3356.74 L 13327.45 -3356.64 L 13327.43 -3356.70 L 13327.55 -3356.77 L 13327.56 -3356.77 Z M 13327.60 -3356.72 L 13327.65 -3356.72 L 13327.58 -3356.66 L 13327.56 -3356.72 L 13327.61 -3356.73 L 13327.60 -3356.72 Z M 13328.81 -3356.80 L 13328.86 -3356.77 L 13328.59 -3356.77 L 13328.80 -3356.80 L 13328.81 -3356.80 Z M 13329.58 -3356.43 L 13329.57 -3356.32 L 13329.52 -3356.43 L 13329.57 -3356.43 L 13329.58 -3356.43 Z M 13329.43 -3356.29 L 13329.49 -3356.44 L 13329.53 -3356.38 L 13329.43 -3356.29 L 13329.43 -3356.29 Z M 13329.42 -3356.71 L 13329.46 -3356.68 L 13329.40 -3356.66 L 13329.42 -3356.70 L 13329.42 -3356.71 Z M 13323.95 -3354.67 L 13323.90 -3354.50 L 13323.84 -3354.58 L 13323.88 -3354.63 L 13323.85 -3354.69 L 13323.95 -3354.72 L 13323.94 -3354.67 L 13323.95 -3354.67 Z M 13323.93 -3354.59 L 13323.88 -3354.57 L 13323.92 -3354.60 L 13323.93 -3354.59 Z M 13323.92 -3354.62 L 13323.90 -3354.65 L 13323.92 -3354.62 L 13323.92 -3354.62 Z M 13323.96 -3354.69 L 13323.92 -3354.72 L 13323.98 -3354.71 L 13323.96 -3354.69 Z M 13323.97 -3354.67 L 13324.00 -3354.72 L 13323.98 -3354.67 L 13323.97 -3354.67 Z M 13324.06 -3354.53 L 13324.01 -3354.66 L 13324.12 -3354.71 L 13324.04 -3354.65 L 13324.10 -3354.58 L 13324.07 -3354.54 L 13324.06 -3354.53 Z M 13324.10 -3354.73 L 13324.17 -3354.73 L 13324.15 -3354.69 L 13324.10 -3354.73 L 13324.10 -3354.73 Z M 13323.77 -3355.23 L 13323.80 -3355.21 L 13323.72 -3355.18 L 13323.67 -3355.26 L 13323.77 -3355.25 L 13323.77 -3355.23 Z M 13323.76 -3355.33 L 13323.88 -3355.28 L 13323.72 -3355.22 L 13323.76 -3355.33 L 13323.76 -3355.33 Z M 13323.99 -3355.30 L 13324.02 -3355.28 L 13323.96 -3355.23 L 13323.80 -3355.27 L 13323.85 -3355.33 L 13323.98 -3355.31 L 13323.99 -3355.30 Z M 13323.92 -3355.27 L 13323.80 -3355.23 L 13323.77 -3355.27 L 13323.91 -3355.27 L 13323.92 -3355.27 Z M 13324.00 -3355.25 L 13323.89 -3355.24 L 13323.98 -3355.31 L 13324.01 -3355.26 L 13324.00 -3355.25 Z M 13323.99 -3355.23 L 13323.98 -3355.28 L 13324.00 -3355.25 L 13323.99 -3355.23 Z M 13323.84 -3355.19 L 13323.79 -3355.20 L 13323.85 -3355.21 L 13323.84 -3355.19 Z M 13323.86 -3355.22 L 13323.85 -3355.14 L 13323.86 -3355.23 L 13323.86 -3355.22 Z M 13324.52 -3354.71 L 13324.44 -3354.76 L 13324.54 -3354.82 L 13324.54 -3354.72 L 13324.52 -3354.71 Z M 13324.53 -3354.86 L 13324.61 -3354.83 L 13324.61 -3354.78 L 13324.53 -3354.77 L 13324.49 -3354.86 L 13324.53 -3354.86 L 13324.53 -3354.86 Z M 13324.64 -3354.89 L 13324.63 -3354.83 L 13324.53 -3354.86 L 13324.63 -3354.92 L 13324.64 -3354.89 Z M 13324.51 -3354.92 L 13324.62 -3354.93 L 13324.59 -3354.88 L 13324.41 -3354.88 L 13324.50 -3354.92 L 13324.51 -3354.92 Z M 13324.59 -3354.73 L 13324.54 -3354.74 L 13324.55 -3354.81 L 13324.60 -3354.75 L 13324.59 -3354.73 Z M 13324.69 -3355.23 L 13324.59 -3355.27 L 13324.62 -3355.30 L 13324.68 -3355.24 L 13324.69 -3355.23 Z M 13324.65 -3355.33 L 13324.63 -3355.40 L 13324.68 -3355.41 L 13324.67 -3355.34 L 13324.65 -3355.33 Z M 13324.90 -3355.45 L 13324.86 -3355.50 L 13324.92 -3355.46 L 13324.90 -3355.45 Z M 13324.85 -3355.39 L 13324.85 -3355.43 L 13324.89 -3355.44 L 13324.88 -3355.40 L 13324.85 -3355.39 Z M 13324.90 -3355.36 L 13324.93 -3355.28 L 13324.85 -3355.31 L 13324.88 -3355.42 L 13324.91 -3355.36 L 13324.90 -3355.36 Z M 13324.59 -3355.47 L 13324.67 -3355.44 L 13324.60 -3355.38 L 13324.58 -3355.47 L 13324.59 -3355.47 Z M 13324.69 -3355.44 L 13324.61 -3355.43 L 13324.61 -3355.54 L 13324.73 -3355.52 L 13324.71 -3355.46 L 13324.69 -3355.44 Z M 13324.70 -3355.48 L 13324.66 -3355.48 L 13324.67 -3355.56 L 13324.70 -3355.49 L 13324.70 -3355.48 Z M 13324.70 -3355.42 L 13324.65 -3355.47 L 13324.73 -3355.48 L 13324.70 -3355.42 L 13324.70 -3355.42 Z M 13324.73 -3355.50 L 13324.79 -3355.49 L 13324.80 -3355.43 L 13324.71 -3355.44 L 13324.69 -3355.51 L 13324.73 -3355.50 Z M 13325.60 -3355.56 L 13325.41 -3355.53 L 13325.40 -3355.57 L 13325.69 -3355.66 L 13325.65 -3355.60 L 13325.60 -3355.56 Z M 13325.57 -3355.54 L 13325.38 -3355.48 L 13325.45 -3355.54 L 13325.57 -3355.54 Z M 13325.35 -3355.57 L 13325.44 -3355.68 L 13325.38 -3355.55 L 13325.35 -3355.57 Z M 13325.43 -3355.51 L 13325.44 -3355.43 L 13325.36 -3355.46 L 13325.40 -3355.49 L 13325.36 -3355.59 L 13325.42 -3355.52 L 13325.43 -3355.51 Z M 13325.26 -3355.28 L 13325.38 -3355.29 L 13325.28 -3355.24 L 13325.26 -3355.28 Z M 13325.31 -3355.29 L 13325.36 -3355.12 L 13325.17 -3355.17 L 13325.28 -3355.28 L 13325.31 -3355.29 Z M 13325.31 -3355.24 L 13325.23 -3355.24 L 13325.31 -3355.25 L 13325.31 -3355.24 Z M 13322.24 -3353.76 L 13322.26 -3353.88 L 13322.35 -3353.93 L 13322.29 -3353.82 L 13322.24 -3353.76 Z M 13322.74 -3354.10 L 13322.63 -3354.10 L 13322.72 -3354.11 L 13322.74 -3354.10 Z M 13322.76 -3354.00 L 13322.88 -3354.06 L 13322.89 -3353.98 L 13322.83 -3353.94 L 13322.75 -3353.95 L 13322.76 -3353.99 L 13322.76 -3354.00 Z M 13322.84 -3354.15 L 13322.90 -3354.04 L 13322.80 -3354.00 L 13322.87 -3354.07 L 13322.82 -3354.12 L 13322.84 -3354.15 Z M 13322.49 -3353.87 L 13322.43 -3353.92 L 13322.51 -3353.95 L 13322.49 -3353.88 L 13322.49 -3353.87 Z M 13322.55 -3354.01 L 13322.48 -3353.97 L 13322.53 -3354.01 L 13322.55 -3354.01 Z M 13322.39 -3353.98 L 13322.36 -3354.01 L 13322.42 -3354.08 L 13322.48 -3354.05 L 13322.41 -3353.99 L 13322.39 -3353.98 Z M 13322.66 -3354.03 L 13322.54 -3354.07 L 13322.66 -3354.09 L 13322.67 -3354.05 L 13322.66 -3354.03 Z M 13322.74 -3353.98 L 13322.77 -3354.05 L 13322.74 -3353.98 L 13322.74 -3353.98 Z M 13323.63 -3354.13 L 13323.68 -3354.10 L 13323.53 -3353.98 L 13323.51 -3354.11 L 13323.62 -3354.13 L 13323.63 -3354.13 Z M 13323.72 -3354.08 L 13323.61 -3354.09 L 13323.66 -3354.20 L 13323.74 -3354.13 L 13323.72 -3354.08 L 13323.72 -3354.08 Z M 13324.53 -3354.05 L 13324.44 -3354.20 L 13324.51 -3354.31 L 13324.57 -3354.28 L 13324.54 -3354.08 L 13324.53 -3354.05 Z M 13324.53 -3354.33 L 13324.53 -3354.29 L 13324.43 -3354.31 L 13324.50 -3354.32 L 13324.53 -3354.33 Z M 13324.51 -3354.32 L 13324.60 -3354.25 L 13324.52 -3354.03 L 13324.51 -3354.30 L 13324.51 -3354.32 Z M 13324.51 -3354.29 L 13324.53 -3354.33 L 13324.51 -3354.29 L 13324.51 -3354.29 Z M 13325.70 -3354.06 L 13325.77 -3354.23 L 13325.86 -3354.26 L 13326.03 -3354.20 L 13326.06 -3354.15 L 13325.98 -3354.05 L 13325.81 -3354.01 L 13325.71 -3354.04 L 13325.70 -3354.06 Z M 13326.15 -3354.23 L 13326.10 -3354.22 L 13326.01 -3354.38 L 13326.09 -3354.44 L 13326.17 -3354.24 L 13326.15 -3354.23 Z M 13323.00 -3352.86 L 13322.94 -3352.98 L 13323.09 -3352.90 L 13323.02 -3352.84 L 13323.00 -3352.86 Z M 13323.11 -3352.86 L 13323.02 -3352.87 L 13323.05 -3352.99 L 13323.17 -3352.91 L 13323.14 -3352.87 L 13323.11 -3352.86 Z M 13323.12 -3352.84 L 13323.09 -3352.90 L 13323.17 -3352.97 L 13323.33 -3352.97 L 13323.29 -3352.84 L 13323.14 -3352.84 L 13323.12 -3352.84 Z M 13323.32 -3352.96 L 13323.29 -3352.94 L 13323.32 -3352.96 L 13323.32 -3352.96 Z M 13323.28 -3352.91 L 13323.44 -3353.03 L 13323.50 -3352.92 L 13323.32 -3352.88 L 13323.28 -3352.91 Z M 13323.17 -3352.85 L 13323.23 -3352.85 L 13323.17 -3352.84 L 13323.17 -3352.85 Z M 13323.81 -3352.96 L 13323.91 -3352.86 L 13323.80 -3352.84 L 13323.81 -3352.96 L 13323.81 -3352.96 Z M 13323.97 -3352.95 L 13323.90 -3352.88 L 13323.86 -3352.95 L 13323.94 -3352.97 L 13323.97 -3352.95 Z M 13323.98 -3353.00 L 13324.05 -3353.00 L 13324.06 -3352.95 L 13323.92 -3352.94 L 13323.96 -3353.02 L 13323.98 -3353.00 Z M 13324.07 -3352.96 L 13324.01 -3352.96 L 13324.01 -3353.05 L 13324.10 -3352.98 L 13324.07 -3352.96 Z M 13324.13 -3352.98 L 13324.06 -3352.97 L 13324.09 -3353.08 L 13324.20 -3353.04 L 13324.15 -3352.99 L 13324.13 -3352.98 Z M 13324.25 -3353.03 L 13324.22 -3353.10 L 13324.29 -3353.12 L 13324.26 -3353.04 L 13324.25 -3353.03 Z M 13324.30 -3353.08 L 13324.25 -3353.07 L 13324.26 -3353.17 L 13324.32 -3353.09 L 13324.30 -3353.08 Z M 13324.13 -3353.50 L 13324.17 -3353.47 L 13324.12 -3353.42 L 13324.08 -3353.44 L 13324.11 -3353.49 L 13324.13 -3353.50 Z M 13324.27 -3353.57 L 13324.30 -3353.60 L 13324.33 -3353.52 L 13324.22 -3353.49 L 13324.20 -3353.52 L 13324.27 -3353.57 L 13324.27 -3353.57 Z M 13324.20 -3353.70 L 13324.33 -3353.64 L 13324.32 -3353.58 L 13324.28 -3353.55 L 13324.20 -3353.69 L 13324.20 -3353.70 Z M 13324.21 -3353.70 L 13324.20 -3353.77 L 13324.35 -3353.76 L 13324.21 -3353.68 L 13324.21 -3353.70 Z M 13324.36 -3353.55 L 13324.32 -3353.53 L 13324.32 -3353.61 L 13324.36 -3353.63 L 13324.36 -3353.57 L 13324.36 -3353.55 Z M 13324.32 -3353.66 L 13324.31 -3353.73 L 13324.37 -3353.74 L 13324.33 -3353.66 L 13324.32 -3353.66 Z M 13324.17 -3353.60 L 13324.13 -3353.62 L 13324.17 -3353.65 L 13324.17 -3353.60 L 13324.17 -3353.60 Z M 13324.16 -3353.53 L 13324.12 -3353.56 L 13324.22 -3353.62 L 13324.25 -3353.57 L 13324.18 -3353.54 L 13324.16 -3353.53 Z M 13324.17 -3353.55 L 13324.21 -3353.49 L 13324.11 -3353.50 L 13324.17 -3353.54 L 13324.17 -3353.55 Z M 13324.16 -3353.52 L 13324.12 -3353.54 L 13324.17 -3353.53 L 13324.16 -3353.52 Z M 13324.10 -3353.69 L 13324.28 -3353.69 L 13324.29 -3353.65 L 13324.22 -3353.63 L 13324.10 -3353.68 L 13324.10 -3353.69 Z M 13324.25 -3353.50 L 13324.34 -3353.48 L 13324.21 -3353.43 L 13324.25 -3353.49 L 13324.25 -3353.50 Z M 13324.25 -3353.46 L 13324.27 -3353.51 L 13324.26 -3353.46 L 13324.25 -3353.46 Z M 13325.09 -3352.77 L 13325.00 -3352.85 L 13325.04 -3352.89 L 13325.10 -3352.77 L 13325.09 -3352.77 Z M 13324.97 -3352.89 L 13325.05 -3352.87 L 13325.03 -3352.81 L 13324.88 -3352.86 L 13324.95 -3352.90 L 13324.97 -3352.89 Z M 13321.00 -3352.59 L 13321.01 -3352.54 L 13320.92 -3352.54 L 13320.94 -3352.75 L 13321.00 -3352.75 L 13321.00 -3352.59 L 13321.00 -3352.59 Z M 13321.04 -3352.61 L 13321.11 -3352.57 L 13320.97 -3352.56 L 13321.04 -3352.62 L 13321.04 -3352.61 Z M 13321.08 -3352.55 L 13321.00 -3352.58 L 13321.09 -3352.55 L 13321.08 -3352.55 Z M 13322.35 -3352.56 L 13322.35 -3352.72 L 13322.50 -3352.67 L 13322.37 -3352.57 L 13322.35 -3352.56 Z M 13322.46 -3352.76 L 13322.53 -3352.62 L 13322.42 -3352.65 L 13322.46 -3352.75 L 13322.46 -3352.76 Z M 13322.37 -3352.53 L 13322.34 -3352.59 L 13322.45 -3352.53 L 13322.45 -3352.50 L 13322.37 -3352.53 L 13322.37 -3352.53 Z M 13322.55 -3352.61 L 13322.50 -3352.57 L 13322.49 -3352.65 L 13322.54 -3352.61 L 13322.55 -3352.61 Z M 13323.24 -3352.65 L 13323.18 -3352.63 L 13323.24 -3352.66 L 13323.24 -3352.65 Z M 13323.13 -3352.66 L 13323.18 -3352.64 L 13323.16 -3352.61 L 13323.09 -3352.64 L 13323.13 -3352.67 L 13323.13 -3352.66 Z M 13324.45 -3352.74 L 13324.47 -3352.84 L 13324.53 -3352.83 L 13324.58 -3352.69 L 13324.49 -3352.68 L 13324.45 -3352.74 L 13324.45 -3352.74 Z M 13324.39 -3352.75 L 13324.48 -3352.76 L 13324.49 -3352.65 L 13324.40 -3352.74 L 13324.39 -3352.75 Z M 13324.53 -3351.16 L 13324.44 -3351.19 L 13324.52 -3351.26 L 13324.58 -3351.20 L 13324.53 -3351.16 L 13324.53 -3351.16 Z M 13324.62 -3351.14 L 13324.59 -3351.21 L 13324.64 -3351.15 L 13324.62 -3351.14 Z M 13324.65 -3351.12 L 13324.67 -3351.16 L 13324.70 -3351.15 L 13324.65 -3351.12 L 13324.65 -3351.12 Z M 13324.49 -3351.16 L 13324.49 -3351.22 L 13324.50 -3351.16 L 13324.49 -3351.16 Z M 13323.50 -3352.90 L 13323.46 -3352.91 L 13323.51 -3352.93 L 13323.50 -3352.90 Z M 13323.94 -3352.64 L 13324.13 -3352.61 L 13323.93 -3352.45 L 13323.81 -3352.64 L 13323.94 -3352.65 L 13323.94 -3352.64 Z M 13324.96 -3352.80 L 13324.94 -3352.72 L 13324.88 -3352.73 L 13324.94 -3352.80 L 13324.96 -3352.80 Z M 13324.94 -3352.72 L 13325.01 -3352.77 L 13325.07 -3352.74 L 13324.98 -3352.69 L 13324.94 -3352.72 L 13324.94 -3352.72 Z M 13322.10 -3354.84 L 13322.18 -3354.81 L 13322.10 -3354.76 L 13322.09 -3354.83 L 13322.10 -3354.84 Z M 13322.07 -3354.83 L 13322.12 -3354.83 L 13322.11 -3354.80 L 13322.00 -3354.79 L 13322.07 -3354.83 L 13322.07 -3354.83 Z M 13322.64 -3354.72 L 13322.69 -3354.70 L 13322.60 -3354.64 L 13322.62 -3354.68 L 13322.64 -3354.72 Z M 13322.67 -3354.67 L 13322.58 -3354.72 L 13322.69 -3354.73 L 13322.68 -3354.69 L 13322.67 -3354.67 Z M 13325.01 -3355.50 L 13325.02 -3355.46 L 13324.92 -3355.50 L 13324.98 -3355.51 L 13325.01 -3355.50 Z M 13325.01 -3355.50 L 13325.00 -3355.46 L 13325.00 -3355.50 L 13325.01 -3355.50 Z M 13325.04 -3355.43 L 13325.04 -3355.52 L 13325.04 -3355.43 L 13325.04 -3355.43 Z M 13324.50 -3354.92 L 13324.53 -3355.00 L 13324.62 -3354.93 L 13324.58 -3354.87 L 13324.51 -3354.91 L 13324.50 -3354.92 Z M 13324.69 -3354.96 L 13324.61 -3354.89 L 13324.50 -3355.06 L 13324.65 -3355.07 L 13324.69 -3354.97 L 13324.69 -3354.96 Z M 13320.96 -3356.00 L 13320.95 -3356.04 L 13320.98 -3356.01 L 13320.96 -3356.00 Z M 13320.93 -3356.01 L 13320.82 -3355.94 L 13320.80 -3355.99 L 13320.90 -3356.02 L 13320.93 -3356.01 Z M 13320.90 -3355.94 L 13320.87 -3355.97 L 13320.90 -3355.95 L 13320.90 -3355.94 Z M 13325.63 -3352.76 L 13325.71 -3353.05 L 13325.84 -3353.01 L 13325.83 -3352.89 L 13325.65 -3352.77 L 13325.63 -3352.76 Z M 13322.83 -3358.91 L 13322.89 -3358.95 L 13322.99 -3358.79 L 13323.11 -3358.78 L 13323.00 -3358.75 L 13322.85 -3358.91 L 13322.83 -3358.91 Z M 13330.29 -3358.87 L 13330.26 -3358.88 L 13330.43 -3359.04 L 13330.44 -3358.86 L 13330.31 -3358.87 L 13330.29 -3358.87 Z M 13328.43 -3357.15 L 13328.36 -3357.12 L 13328.31 -3357.30 L 13328.33 -3357.64 L 13327.71 -3358.25 L 13327.63 -3358.43 L 13327.67 -3358.62 L 13327.41 -3358.79 L 13327.46 -3358.87 L 13327.53 -3358.76 L 13327.63 -3358.76 L 13327.73 -3358.61 L 13327.64 -3358.48 L 13327.65 -3358.41 L 13327.90 -3358.17 L 13327.93 -3358.05 L 13328.09 -3357.99 L 13328.24 -3357.74 L 13328.38 -3357.65 L 13328.35 -3357.55 L 13328.40 -3357.28 L 13328.49 -3357.17 L 13328.44 -3357.15 L 13328.43 -3357.15 Z M 13328.45 -3357.15 L 13328.39 -3357.12 L 13328.30 -3357.29 L 13328.34 -3357.63 L 13328.07 -3357.94 L 13327.94 -3358.00 L 13327.81 -3358.20 L 13327.72 -3358.24 L 13327.64 -3358.42 L 13327.67 -3358.61 L 13327.61 -3358.83 L 13327.71 -3358.98 L 13327.62 -3358.79 L 13327.74 -3358.59 L 13327.64 -3358.48 L 13327.66 -3358.41 L 13327.90 -3358.18 L 13327.94 -3358.02 L 13328.04 -3358.03 L 13328.10 -3357.98 L 13328.17 -3357.82 L 13328.38 -3357.65 L 13328.35 -3357.58 L 13328.41 -3357.23 L 13328.49 -3357.17 L 13328.45 -3357.15 Z M 13328.45 -3357.15 L 13328.39 -3357.12 L 13328.30 -3357.28 L 13328.34 -3357.64 L 13328.20 -3357.73 L 13328.09 -3357.92 L 13327.92 -3358.02 L 13327.84 -3358.17 L 13327.72 -3358.24 L 13327.64 -3358.42 L 13327.67 -3358.61 L 13327.64 -3358.68 L 13327.38 -3358.82 L 13327.61 -3358.76 L 13327.72 -3358.64 L 13327.66 -3358.39 L 13327.90 -3358.19 L 13327.93 -3358.06 L 13328.06 -3358.03 L 13328.19 -3357.79 L 13328.37 -3357.66 L 13328.35 -3357.55 L 13328.41 -3357.23 L 13328.49 -3357.17 L 13328.45 -3357.15 Z M 13325.04 -3358.84 L 13325.10 -3358.78 L 13325.00 -3358.80 L 13324.99 -3358.89 L 13325.23 -3359.14 L 13325.52 -3359.23 L 13325.08 -3358.97 L 13325.03 -3358.85 L 13325.04 -3358.84 Z M 13325.10 -3358.79 L 13324.99 -3358.81 L 13324.99 -3358.90 L 13325.40 -3359.26 L 13325.36 -3359.14 L 13325.02 -3358.90 L 13325.01 -3358.85 L 13325.11 -3358.81 L 13325.10 -3358.79 Z M 13325.21 -3359.03 L 13325.22 -3359.14 L 13325.11 -3359.36 L 13325.30 -3359.13 L 13325.22 -3359.03 L 13325.21 -3359.03 Z M 13325.27 -3359.09 L 13325.22 -3359.03 L 13325.21 -3359.16 L 13325.11 -3359.34 L 13325.22 -3359.63 L 13325.08 -3359.84 L 13325.23 -3359.69 L 13325.16 -3359.33 L 13325.30 -3359.12 L 13325.27 -3359.09 L 13325.27 -3359.09 Z M 13324.63 -3354.93 L 13324.70 -3354.99 L 13324.70 -3354.92 L 13324.64 -3354.90 L 13324.67 -3354.87 L 13324.48 -3354.95 L 13324.62 -3354.93 L 13324.63 -3354.93 Z M 13324.69 -3354.96 L 13324.63 -3354.89 L 13324.67 -3354.87 L 13324.54 -3354.90 L 13324.27 -3355.11 L 13324.02 -3355.09 L 13323.74 -3355.20 L 13323.70 -3355.27 L 13324.16 -3355.22 L 13324.19 -3355.12 L 13324.27 -3355.13 L 13324.53 -3354.92 L 13324.70 -3354.98 L 13324.69 -3354.96 Z M 13324.70 -3354.93 L 13324.64 -3354.90 L 13324.67 -3354.87 L 13324.55 -3354.89 L 13324.26 -3355.11 L 13324.01 -3355.09 L 13323.82 -3355.18 L 13323.84 -3355.30 L 13324.27 -3355.13 L 13324.52 -3354.93 L 13324.70 -3354.99 L 13324.69 -3354.95 L 13324.70 -3354.93 Z M 13324.57 -3354.56 L 13324.68 -3354.70 L 13324.68 -3354.56 L 13324.59 -3354.56 L 13324.57 -3354.56 Z M 13324.16 -3352.77 L 13324.07 -3353.02 L 13324.36 -3352.97 L 13324.29 -3352.85 L 13324.16 -3352.77 L 13324.16 -3352.77 Z M 13323.99 -3352.69 L 13323.88 -3352.74 L 13323.91 -3353.01 L 13324.26 -3352.76 L 13324.02 -3352.68 L 13323.99 -3352.69 Z M 13320.90 -3355.85 L 13320.85 -3355.87 L 13320.91 -3355.86 L 13320.90 -3355.85 Z M 13320.95 -3355.87 L 13320.90 -3355.85 L 13320.89 -3355.89 L 13320.96 -3355.94 L 13320.96 -3355.89 L 13320.95 -3355.87 Z M 13320.99 -3355.83 L 13320.94 -3355.82 L 13320.98 -3355.84 L 13320.99 -3355.83 Z M 13320.98 -3355.89 L 13320.92 -3355.87 L 13320.98 -3355.89 L 13320.98 -3355.89 Z M 13320.77 -3355.90 L 13320.67 -3355.88 L 13320.58 -3355.99 L 13320.73 -3355.91 L 13320.77 -3355.90 Z M 13320.19 -3355.90 L 13320.04 -3355.85 L 13320.13 -3355.97 L 13320.17 -3355.93 L 13320.19 -3355.90 Z M 13320.23 -3356.00 L 13320.26 -3355.93 L 13320.23 -3356.00 L 13320.23 -3356.00 Z M 13320.14 -3355.88 L 13320.08 -3355.88 L 13320.14 -3355.88 L 13320.14 -3355.88 Z M 13320.19 -3355.88 L 13320.05 -3355.84 L 13320.02 -3355.88 L 13320.23 -3355.95 L 13320.20 -3355.90 L 13320.19 -3355.88 Z M 13320.03 -3355.84 L 13320.05 -3355.88 L 13320.10 -3355.85 L 13320.04 -3355.84 L 13320.03 -3355.84 Z M 13319.98 -3356.74 L 13320.10 -3356.70 L 13319.98 -3356.67 L 13319.97 -3356.72 L 13319.98 -3356.74 Z M 13320.05 -3356.76 L 13320.00 -3356.71 L 13319.97 -3356.74 L 13320.03 -3356.76 L 13320.05 -3356.76 Z M 13320.07 -3356.70 L 13319.99 -3356.78 L 13320.09 -3356.79 L 13320.08 -3356.70 L 13320.07 -3356.70 Z M 13320.07 -3356.71 L 13320.04 -3356.74 L 13320.11 -3356.79 L 13320.07 -3356.72 L 13320.07 -3356.71 Z M 13320.11 -3356.82 L 13320.05 -3356.80 L 13320.10 -3356.84 L 13320.11 -3356.82 Z M 13320.11 -3356.82 L 13320.07 -3356.82 L 13320.11 -3356.84 L 13320.11 -3356.82 Z M 13321.29 -3355.93 L 13321.24 -3355.98 L 13321.31 -3355.95 L 13321.29 -3355.93 Z M 13321.21 -3355.86 L 13321.16 -3355.85 L 13321.14 -3355.92 L 13321.22 -3355.95 L 13321.22 -3355.86 L 13321.21 -3355.86 Z M 13321.23 -3355.95 L 13321.22 -3356.00 L 13321.24 -3355.95 L 13321.23 -3355.95 Z M 13321.20 -3355.98 L 13321.14 -3356.04 L 13321.22 -3356.00 L 13321.20 -3355.98 Z M 13320.31 -3355.82 L 13320.37 -3355.75 L 13320.22 -3355.72 L 13320.23 -3355.80 L 13320.31 -3355.83 L 13320.31 -3355.82 Z M 13320.32 -3355.74 L 13320.33 -3355.78 L 13320.34 -3355.75 L 13320.32 -3355.74 Z M 13320.46 -3355.77 L 13320.36 -3355.74 L 13320.32 -3355.85 L 13320.42 -3355.89 L 13320.48 -3355.79 L 13320.46 -3355.77 Z M 13320.35 -3355.64 L 13320.13 -3355.59 L 13320.16 -3355.66 L 13320.27 -3355.73 L 13320.37 -3355.66 L 13320.35 -3355.64 Z M 13320.02 -3355.86 L 13320.11 -3355.83 L 13320.09 -3355.72 L 13319.83 -3355.74 L 13320.02 -3355.86 L 13320.02 -3355.86 Z M 13321.50 -3355.44 L 13321.53 -3355.34 L 13321.47 -3355.43 L 13321.50 -3355.44 Z M 13321.39 -3355.44 L 13321.50 -3355.43 L 13321.53 -3355.39 L 13321.46 -3355.37 L 13321.34 -3355.42 L 13321.37 -3355.45 L 13321.39 -3355.44 Z M 13321.41 -3355.46 L 13321.38 -3355.48 L 13321.41 -3355.46 L 13321.41 -3355.46 Z M 13321.48 -3355.47 L 13321.46 -3355.43 L 13321.47 -3355.48 L 13321.48 -3355.47 Z M 13321.36 -3355.60 L 13321.40 -3355.54 L 13321.27 -3355.54 L 13321.17 -3355.65 L 13321.28 -3355.74 L 13321.39 -3355.71 L 13321.35 -3355.64 L 13321.36 -3355.60 Z M 13321.31 -3355.61 L 13321.32 -3355.67 L 13321.32 -3355.61 L 13321.31 -3355.61 Z M 13321.40 -3355.61 L 13321.35 -3355.63 L 13321.38 -3355.70 L 13321.40 -3355.62 L 13321.40 -3355.61 Z M 13321.40 -3355.67 L 13321.51 -3355.58 L 13321.41 -3355.53 L 13321.40 -3355.67 L 13321.40 -3355.67 Z M 13321.12 -3355.75 L 13321.12 -3355.68 L 13321.00 -3355.73 L 13321.00 -3355.83 L 13321.13 -3355.77 L 13321.12 -3355.75 Z M 13321.09 -3355.78 L 13321.04 -3355.82 L 13321.09 -3355.79 L 13321.09 -3355.78 Z M 13319.00 -3356.65 L 13319.10 -3356.56 L 13318.98 -3356.53 L 13319.00 -3356.64 L 13319.00 -3356.65 Z M 13319.07 -3356.58 L 13319.09 -3356.53 L 13319.02 -3356.58 L 13319.07 -3356.59 L 13319.07 -3356.58 Z M 13320.94 -3356.18 L 13320.97 -3356.15 L 13320.90 -3356.14 L 13320.88 -3356.21 L 13320.93 -3356.19 L 13320.94 -3356.18 Z M 13320.95 -3356.13 L 13320.94 -3356.18 L 13321.04 -3356.16 L 13320.95 -3356.13 L 13320.95 -3356.13 Z M 13319.99 -3357.27 L 13320.02 -3357.29 L 13320.04 -3357.22 L 13320.12 -3357.20 L 13320.09 -3357.16 L 13319.90 -3357.18 L 13319.99 -3357.27 L 13319.99 -3357.27 Z M 13320.13 -3357.21 L 13320.09 -3357.16 L 13320.08 -3357.23 L 13319.98 -3357.26 L 13320.01 -3357.29 L 13320.12 -3357.23 L 13320.13 -3357.21 Z M 13320.78 -3356.10 L 13320.80 -3356.02 L 13320.67 -3356.06 L 13320.77 -3356.10 L 13320.78 -3356.10 Z M 13320.85 -3356.14 L 13320.72 -3356.11 L 13320.70 -3356.15 L 13320.74 -3356.20 L 13320.85 -3356.14 L 13320.85 -3356.14 Z M 13319.97 -3356.64 L 13319.90 -3356.67 L 13319.97 -3356.64 L 13319.97 -3356.64 Z M 13320.07 -3356.87 L 13320.03 -3356.93 L 13320.08 -3356.87 L 13320.07 -3356.87 Z M 13320.14 -3356.90 L 13320.09 -3356.89 L 13320.11 -3356.97 L 13320.13 -3356.92 L 13320.14 -3356.90 Z M 13321.09 -3356.22 L 13321.15 -3356.27 L 13321.11 -3356.15 L 13321.07 -3356.13 L 13321.10 -3356.21 L 13321.09 -3356.22 Z M 13321.15 -3356.25 L 13321.15 -3356.20 L 13321.03 -3356.25 L 13321.13 -3356.25 L 13321.15 -3356.25 Z M 13321.15 -3356.24 L 13321.22 -3356.16 L 13321.19 -3356.14 L 13321.07 -3356.13 L 13321.15 -3356.24 L 13321.15 -3356.24 Z M 13322.12 -3358.83 L 13322.25 -3358.78 L 13322.11 -3358.68 L 13321.97 -3358.81 L 13322.09 -3358.83 L 13322.12 -3358.83 Z M 13322.28 -3358.69 L 13322.24 -3358.66 L 13322.22 -3358.71 L 13322.28 -3358.69 L 13322.28 -3358.69 Z M 13321.94 -3358.61 L 13321.98 -3358.48 L 13321.83 -3358.50 L 13321.78 -3358.65 L 13321.92 -3358.62 L 13321.94 -3358.61 Z M 13321.81 -3358.81 L 13321.98 -3358.69 L 13321.98 -3358.63 L 13321.80 -3358.82 L 13321.81 -3358.81 Z M 13321.48 -3356.40 L 13321.62 -3356.29 L 13321.41 -3356.26 L 13321.27 -3356.33 L 13321.46 -3356.40 L 13321.48 -3356.40 Z M 13321.41 -3356.28 L 13321.34 -3356.27 L 13321.27 -3356.34 L 13321.41 -3356.29 L 13321.41 -3356.28 Z M 13321.41 -3356.29 L 13321.38 -3356.30 L 13321.41 -3356.29 L 13321.41 -3356.29 Z M 13321.49 -3356.24 L 13321.43 -3356.24 L 13321.42 -3356.31 L 13321.61 -3356.31 L 13321.63 -3356.28 L 13321.52 -3356.23 L 13321.49 -3356.24 Z M 13321.34 -3356.28 L 13321.44 -3356.26 L 13321.36 -3356.23 L 13321.33 -3356.27 L 13321.34 -3356.28 Z M 13322.61 -3356.77 L 13322.64 -3356.69 L 13322.59 -3356.66 L 13322.60 -3356.77 L 13322.61 -3356.77 Z M 13322.84 -3356.70 L 13322.77 -3356.63 L 13322.76 -3356.69 L 13322.84 -3356.70 L 13322.84 -3356.70 Z M 13322.86 -3356.64 L 13322.81 -3356.64 L 13322.86 -3356.65 L 13322.86 -3356.64 Z M 13322.27 -3356.93 L 13322.22 -3356.92 L 13322.26 -3356.94 L 13322.27 -3356.93 Z M 13322.31 -3356.85 L 13322.20 -3356.88 L 13322.26 -3356.92 L 13322.31 -3356.85 L 13322.31 -3356.85 Z M 13322.34 -3356.75 L 13322.22 -3356.89 L 13322.33 -3356.83 L 13322.35 -3356.76 L 13322.34 -3356.75 Z M 13322.52 -3356.61 L 13322.45 -3356.67 L 13322.54 -3356.67 L 13322.51 -3356.61 L 13322.52 -3356.61 Z" />
    <path d="M 13322.52 -3356.44 L 13322.45 -3356.42 L 13322.51 -3356.45 L 13322.52 -3356.44 Z M 13322.81 -3356.43 L 13322.85 -3356.35 L 13322.54 -3356.34 L 13322.61 -3356.43 L 13322.68 -3356.40 L 13322.78 -3356.48 L 13322.81 -3356.43 Z M 13322.54 -3356.36 L 13322.51 -3356.39 L 13322.56 -3356.40 L 13322.55 -3356.37 L 13322.54 -3356.36 Z M 13322.57 -3356.36 L 13322.59 -3356.31 L 13322.53 -3356.34 L 13322.54 -3356.39 L 13322.57 -3356.36 L 13322.57 -3356.36 Z M 13322.54 -3356.43 L 13322.45 -3356.41 L 13322.53 -3356.43 L 13322.54 -3356.43 Z M 13322.45 -3356.39 L 13322.43 -3356.42 L 13322.46 -3356.39 L 13322.45 -3356.39 Z M 13322.46 -3356.37 L 13322.38 -3356.36 L 13322.40 -3356.41 L 13322.46 -3356.38 L 13322.46 -3356.37 Z M 13322.55 -3356.38 L 13322.48 -3356.35 L 13322.48 -3356.41 L 13322.53 -3356.40 L 13322.55 -3356.38 Z M 13322.45 -3356.33 L 13322.41 -3356.36 L 13322.46 -3356.33 L 13322.45 -3356.33 Z M 13322.69 -3356.51 L 13322.80 -3356.45 L 13322.70 -3356.35 L 13322.59 -3356.41 L 13322.69 -3356.51 L 13322.69 -3356.51 Z M 13322.87 -3356.33 L 13322.90 -3356.40 L 13323.00 -3356.41 L 13323.01 -3356.35 L 13322.88 -3356.34 L 13322.87 -3356.33 Z M 13323.07 -3356.35 L 13323.05 -3356.38 L 13323.09 -3356.37 L 13323.07 -3356.35 Z M 13322.54 -3355.96 L 13322.58 -3355.95 L 13322.52 -3355.87 L 13322.52 -3355.96 L 13322.54 -3355.96 Z M 13322.58 -3355.81 L 13322.52 -3355.83 L 13322.63 -3355.85 L 13322.58 -3355.81 L 13322.58 -3355.81 Z M 13322.70 -3355.85 L 13322.67 -3355.75 L 13322.55 -3355.79 L 13322.70 -3355.86 L 13322.70 -3355.85 Z M 13322.63 -3355.80 L 13322.69 -3355.77 L 13322.59 -3355.76 L 13322.57 -3355.79 L 13322.62 -3355.80 L 13322.63 -3355.80 Z M 13322.57 -3355.80 L 13322.54 -3355.83 L 13322.58 -3355.85 L 13322.57 -3355.80 L 13322.57 -3355.80 Z M 13322.52 -3355.51 L 13322.49 -3355.56 L 13322.55 -3355.56 L 13322.53 -3355.52 L 13322.52 -3355.51 Z M 13322.57 -3355.50 L 13322.58 -3355.58 L 13322.63 -3355.55 L 13322.59 -3355.51 L 13322.57 -3355.50 Z M 13322.52 -3355.68 L 13322.56 -3355.63 L 13322.46 -3355.63 L 13322.51 -3355.68 L 13322.52 -3355.68 Z M 13322.62 -3355.59 L 13322.61 -3355.63 L 13322.63 -3355.59 L 13322.62 -3355.59 Z M 13322.60 -3355.56 L 13322.58 -3355.60 L 13322.67 -3355.62 L 13322.64 -3355.58 L 13322.60 -3355.56 Z M 13321.50 -3357.64 L 13321.50 -3357.61 L 13321.46 -3357.63 L 13321.50 -3357.65 L 13321.50 -3357.64 Z M 13321.42 -3357.30 L 13321.37 -3357.31 L 13321.42 -3357.30 L 13321.42 -3357.30 Z M 13322.04 -3357.05 L 13322.02 -3357.00 L 13321.90 -3357.06 L 13321.95 -3357.11 L 13322.04 -3357.06 L 13322.04 -3357.05 Z M 13322.53 -3356.08 L 13322.54 -3356.03 L 13322.43 -3356.06 L 13322.50 -3356.10 L 13322.53 -3356.08 Z M 13322.98 -3356.54 L 13322.94 -3356.46 L 13322.89 -3356.49 L 13322.94 -3356.54 L 13322.98 -3356.54 Z M 13322.95 -3356.53 L 13322.89 -3356.55 L 13322.96 -3356.59 L 13322.95 -3356.53 L 13322.95 -3356.53 Z M 13323.00 -3356.53 L 13322.93 -3356.54 L 13322.98 -3356.59 L 13323.00 -3356.55 L 13323.00 -3356.53 Z M 13325.48 -3359.70 L 13325.42 -3359.70 L 13325.48 -3359.71 L 13325.48 -3359.70 Z M 13324.83 -3357.93 L 13324.73 -3357.98 L 13324.70 -3358.07 L 13324.88 -3358.01 L 13324.84 -3357.95 L 13324.83 -3357.93 Z M 13328.38 -3357.63 L 13328.33 -3357.64 L 13328.37 -3357.65 L 13328.38 -3357.63 Z M 13327.88 -3357.77 L 13327.99 -3357.76 L 13327.94 -3357.69 L 13327.87 -3357.77 L 13327.88 -3357.77 Z M 13325.31 -3359.15 L 13325.21 -3359.20 L 13325.28 -3359.26 L 13325.35 -3359.17 L 13325.31 -3359.15 Z M 13324.81 -3357.94 L 13324.78 -3357.96 L 13324.81 -3357.99 L 13324.83 -3357.95 L 13324.81 -3357.94 Z M 13326.32 -3356.22 L 13326.20 -3356.31 L 13326.34 -3356.27 L 13326.33 -3356.24 L 13326.32 -3356.22 Z M 13325.03 -3358.47 L 13324.98 -3358.52 L 13325.02 -3358.57 L 13325.07 -3358.55 L 13325.04 -3358.47 L 13325.03 -3358.47 Z M 13323.00 -3358.34 L 13322.95 -3358.32 L 13322.99 -3358.34 L 13323.00 -3358.34 Z M 13323.20 -3358.33 L 13323.17 -3358.30 L 13323.08 -3358.39 L 13323.14 -3358.42 L 13323.20 -3358.33 L 13323.20 -3358.33 Z M 13323.58 -3358.06 L 13323.57 -3358.16 L 13323.60 -3358.06 L 13323.58 -3358.06 Z M 13324.69 -3357.96 L 13324.65 -3358.00 L 13324.70 -3357.98 L 13324.69 -3357.96 Z M 13324.27 -3357.77 L 13324.33 -3357.93 L 13324.49 -3357.87 L 13324.28 -3357.77 L 13324.27 -3357.77 Z M 13325.19 -3359.65 L 13325.14 -3359.65 L 13325.18 -3359.66 L 13325.19 -3359.65 Z M 13325.53 -3360.04 L 13325.61 -3360.01 L 13325.65 -3359.91 L 13325.40 -3359.83 L 13325.38 -3359.97 L 13325.53 -3360.04 L 13325.53 -3360.04 Z M 13324.50 -3357.50 L 13324.52 -3357.46 L 13324.47 -3357.46 L 13324.40 -3357.55 L 13324.54 -3357.57 L 13324.50 -3357.50 L 13324.50 -3357.50 Z M 13324.48 -3357.49 L 13324.46 -3357.38 L 13324.39 -3357.40 L 13324.32 -3357.48 L 13324.34 -3357.56 L 13324.46 -3357.55 L 13324.47 -3357.50 L 13324.48 -3357.49 Z M 13325.38 -3359.63 L 13325.27 -3359.63 L 13325.37 -3359.71 L 13325.38 -3359.63 L 13325.38 -3359.63 Z M 13325.21 -3359.21 L 13325.26 -3359.20 L 13325.21 -3359.20 L 13325.21 -3359.21 Z M 13328.32 -3357.29 L 13328.27 -3357.18 L 13328.29 -3357.25 L 13328.12 -3357.31 L 13328.15 -3357.37 L 13328.33 -3357.30 L 13328.32 -3357.29 Z M 13327.91 -3358.76 L 13327.88 -3358.80 L 13327.96 -3358.83 L 13327.92 -3358.77 L 13327.91 -3358.76 Z M 13325.57 -3357.10 L 13325.53 -3357.12 L 13325.58 -3357.11 L 13325.57 -3357.10 Z M 13325.53 -3357.10 L 13325.50 -3357.13 L 13325.54 -3357.11 L 13325.53 -3357.10 Z M 13325.79 -3356.92 L 13325.75 -3356.98 L 13325.80 -3356.92 L 13325.79 -3356.92 Z M 13325.76 -3357.18 L 13325.76 -3356.99 L 13325.71 -3356.99 L 13325.67 -3357.09 L 13325.51 -3357.11 L 13325.75 -3357.20 L 13325.76 -3357.18 Z M 13327.45 -3358.80 L 13327.39 -3358.82 L 13327.41 -3358.93 L 13327.47 -3358.81 L 13327.45 -3358.80 Z M 13327.46 -3358.80 L 13327.39 -3358.82 L 13327.48 -3358.86 L 13327.46 -3358.80 L 13327.46 -3358.80 Z M 13327.42 -3358.81 L 13327.41 -3358.85 L 13327.43 -3358.82 L 13327.42 -3358.81 Z M 13327.91 -3358.90 L 13327.84 -3358.93 L 13327.92 -3358.97 L 13327.92 -3358.91 L 13327.91 -3358.90 Z M 13328.07 -3357.75 L 13328.01 -3357.70 L 13328.05 -3357.74 L 13328.07 -3357.75 Z M 13326.33 -3356.39 L 13326.45 -3356.32 L 13326.36 -3356.23 L 13326.27 -3356.24 L 13326.31 -3356.39 L 13326.33 -3356.39 Z M 13324.94 -3358.62 L 13325.06 -3358.59 L 13324.94 -3358.48 L 13324.93 -3358.62 L 13324.94 -3358.62 Z M 13322.95 -3358.42 L 13323.02 -3358.42 L 13322.99 -3358.33 L 13322.86 -3358.41 L 13322.94 -3358.42 L 13322.95 -3358.42 Z M 13323.68 -3358.01 L 13323.64 -3357.99 L 13323.62 -3358.05 L 13323.71 -3358.10 L 13323.73 -3358.03 L 13323.68 -3358.01 L 13323.68 -3358.01 Z M 13323.52 -3357.69 L 13323.45 -3357.72 L 13323.52 -3357.71 L 13323.52 -3357.69 Z M 13323.20 -3358.32 L 13323.16 -3358.29 L 13323.09 -3358.40 L 13323.20 -3358.44 L 13323.31 -3358.40 L 13323.20 -3358.32 L 13323.20 -3358.32 Z M 13323.18 -3358.33 L 13323.17 -3358.28 L 13323.02 -3358.30 L 13323.13 -3358.39 L 13323.18 -3358.34 L 13323.18 -3358.33 Z M 13323.61 -3358.11 L 13323.60 -3358.05 L 13323.50 -3358.10 L 13323.59 -3358.11 L 13323.61 -3358.11 Z M 13323.62 -3358.08 L 13323.55 -3358.11 L 13323.65 -3358.13 L 13323.62 -3358.09 L 13323.62 -3358.08 Z M 13324.70 -3357.99 L 13324.64 -3357.96 L 13324.66 -3358.04 L 13324.70 -3358.00 L 13324.70 -3357.99 Z M 13324.14 -3358.08 L 13324.22 -3358.27 L 13324.29 -3358.16 L 13324.16 -3358.08 L 13324.14 -3358.08 Z M 13324.20 -3357.98 L 13324.15 -3357.98 L 13324.14 -3358.09 L 13324.20 -3357.98 L 13324.20 -3357.98 Z M 13327.70 -3358.24 L 13327.60 -3358.28 L 13327.74 -3358.28 L 13327.71 -3358.24 L 13327.70 -3358.24 Z M 13325.38 -3357.07 L 13325.42 -3357.12 L 13325.46 -3357.09 L 13325.43 -3356.99 L 13325.38 -3357.06 L 13325.38 -3357.07 Z M 13324.87 -3359.77 L 13325.10 -3359.70 L 13324.88 -3359.59 L 13324.86 -3359.73 L 13324.87 -3359.77 Z M 13325.43 -3359.65 L 13325.45 -3359.61 L 13325.39 -3359.63 L 13325.40 -3359.78 L 13325.49 -3359.73 L 13325.43 -3359.65 L 13325.43 -3359.65 Z M 13325.10 -3359.78 L 13325.08 -3359.82 L 13325.15 -3359.89 L 13325.23 -3359.85 L 13325.22 -3359.74 L 13325.17 -3359.71 L 13325.12 -3359.76 L 13325.10 -3359.78 Z M 13325.21 -3359.62 L 13325.28 -3359.67 L 13325.30 -3359.63 L 13325.23 -3359.62 L 13325.21 -3359.62 Z M 13324.86 -3357.95 L 13324.84 -3357.89 L 13324.77 -3357.95 L 13324.84 -3358.00 L 13324.86 -3357.96 L 13324.86 -3357.95 Z M 13328.83 -3357.44 L 13328.87 -3357.36 L 13328.83 -3357.33 L 13328.62 -3357.35 L 13328.83 -3357.45 L 13328.83 -3357.44 Z M 13329.03 -3357.38 L 13328.96 -3357.26 L 13328.87 -3357.34 L 13329.05 -3357.40 L 13329.03 -3357.38 Z M 13328.38 -3357.35 L 13328.43 -3357.39 L 13328.39 -3357.33 L 13328.38 -3357.35 Z M 13328.61 -3357.35 L 13328.50 -3357.32 L 13328.45 -3357.39 L 13328.59 -3357.35 L 13328.61 -3357.35 Z M 13328.60 -3357.29 L 13328.59 -3357.34 L 13328.61 -3357.29 L 13328.60 -3357.29 Z M 13328.28 -3357.21 L 13328.28 -3357.13 L 13328.16 -3357.14 L 13328.25 -3357.24 L 13328.29 -3357.22 L 13328.28 -3357.21 Z M 13328.34 -3357.22 L 13328.29 -3357.26 L 13328.34 -3357.23 L 13328.34 -3357.22 Z M 13325.82 -3356.93 L 13325.76 -3356.94 L 13325.75 -3357.01 L 13325.82 -3357.01 L 13325.83 -3356.94 L 13325.82 -3356.93 Z M 13325.47 -3357.12 L 13325.52 -3357.12 L 13325.47 -3357.12 L 13325.47 -3357.12 Z M 13325.77 -3356.92 L 13325.77 -3356.98 L 13325.77 -3356.92 L 13325.77 -3356.92 Z M 13327.92 -3359.05 L 13327.93 -3358.95 L 13327.86 -3358.95 L 13327.91 -3359.06 L 13327.92 -3359.05 Z M 13325.24 -3359.55 L 13325.17 -3359.68 L 13325.26 -3359.64 L 13325.24 -3359.56 L 13325.24 -3359.55 Z M 13324.92 -3358.01 L 13324.85 -3357.90 L 13324.80 -3357.93 L 13324.85 -3357.97 L 13324.83 -3358.03 L 13324.91 -3358.02 L 13324.92 -3358.01 Z M 13324.86 -3357.90 L 13324.86 -3357.94 L 13324.91 -3357.90 L 13324.86 -3357.88 L 13324.86 -3357.90 Z M 13327.72 -3358.89 L 13327.52 -3358.79 L 13327.51 -3358.99 L 13327.54 -3359.05 L 13327.72 -3358.92 L 13327.72 -3358.89 Z M 13322.99 -3358.73 L 13322.98 -3358.65 L 13322.99 -3358.73 L 13322.99 -3358.73 Z M 13327.26 -3358.62 L 13327.17 -3358.59 L 13327.29 -3358.73 L 13327.34 -3358.69 L 13327.28 -3358.63 L 13327.26 -3358.62 Z M 13327.40 -3358.71 L 13327.32 -3358.74 L 13327.41 -3358.72 L 13327.40 -3358.71 Z M 13327.39 -3358.84 L 13327.46 -3358.82 L 13327.45 -3358.77 L 13327.37 -3358.75 L 13327.27 -3358.82 L 13327.37 -3358.83 L 13327.39 -3358.84 Z M 13327.52 -3358.65 L 13327.55 -3358.60 L 13327.44 -3358.64 L 13327.44 -3358.71 L 13327.50 -3358.68 L 13327.52 -3358.65 Z M 13327.45 -3358.79 L 13327.55 -3358.77 L 13327.50 -3358.74 L 13327.44 -3358.78 L 13327.45 -3358.79 Z M 13325.12 -3359.03 L 13325.26 -3359.07 L 13325.29 -3359.01 L 13325.19 -3358.98 L 13325.11 -3359.03 L 13325.12 -3359.03 Z M 13325.09 -3359.02 L 13325.16 -3359.06 L 13325.11 -3358.99 L 13325.09 -3359.02 Z M 13322.75 -3359.22 L 13322.86 -3359.10 L 13322.78 -3359.08 L 13322.74 -3359.22 L 13322.75 -3359.22 Z M 13322.76 -3359.08 L 13322.72 -3359.07 L 13322.75 -3359.09 L 13322.76 -3359.08 Z M 13323.11 -3358.74 L 13322.98 -3358.77 L 13323.11 -3358.87 L 13323.18 -3358.86 L 13323.12 -3358.77 L 13323.11 -3358.74 Z M 13323.15 -3358.75 L 13323.23 -3358.76 L 13323.18 -3358.63 L 13323.13 -3358.63 L 13323.06 -3358.76 L 13323.14 -3358.75 L 13323.15 -3358.75 Z M 13323.12 -3358.72 L 13323.13 -3358.68 L 13323.12 -3358.72 L 13323.12 -3358.72 Z M 13326.98 -3358.62 L 13327.07 -3358.62 L 13327.06 -3358.54 L 13326.91 -3358.59 L 13326.97 -3358.62 L 13326.98 -3358.62 Z M 13324.19 -3358.13 L 13324.25 -3358.07 L 13324.17 -3357.98 L 13324.11 -3358.05 L 13324.17 -3358.13 L 13324.19 -3358.13 Z M 13317.91 -3350.74 L 13317.88 -3350.82 L 13317.68 -3350.99 L 13317.40 -3351.06 L 13317.32 -3351.17 L 13317.16 -3351.17 L 13317.16 -3351.26 L 13317.00 -3351.35 L 13316.98 -3351.45 L 13316.84 -3351.62 L 13317.01 -3351.44 L 13317.06 -3351.32 L 13317.18 -3351.27 L 13317.19 -3351.17 L 13317.33 -3351.18 L 13317.40 -3351.06 L 13317.69 -3351.00 L 13317.97 -3350.76 L 13317.93 -3350.75 L 13317.91 -3350.74 Z M 13317.92 -3350.74 L 13317.67 -3351.00 L 13317.39 -3351.06 L 13317.31 -3351.17 L 13317.20 -3351.15 L 13317.16 -3351.26 L 13316.82 -3351.44 L 13316.95 -3351.44 L 13317.06 -3351.31 L 13317.17 -3351.27 L 13317.19 -3351.16 L 13317.31 -3351.18 L 13317.40 -3351.07 L 13317.68 -3351.00 L 13317.94 -3350.75 L 13317.92 -3350.74 Z M 13317.06 -3351.31 L 13317.14 -3351.43 L 13317.13 -3351.30 L 13317.07 -3351.30 L 13317.06 -3351.31 Z M 13317.91 -3350.74 L 13317.68 -3350.99 L 13317.36 -3351.07 L 13317.33 -3351.17 L 13317.16 -3351.17 L 13317.16 -3351.26 L 13317.06 -3351.30 L 13316.96 -3351.46 L 13316.98 -3351.54 L 13317.02 -3351.55 L 13317.01 -3351.39 L 13317.17 -3351.27 L 13317.19 -3351.16 L 13317.35 -3351.17 L 13317.39 -3351.07 L 13317.68 -3351.01 L 13317.93 -3350.75 L 13317.91 -3350.74 Z M 13316.96 -3350.56 L 13316.76 -3350.70 L 13317.05 -3350.63 L 13316.96 -3350.56 L 13316.96 -3350.56 Z M 13316.21 -3350.46 L 13316.23 -3350.50 L 13316.29 -3350.45 L 13316.61 -3350.49 L 13316.78 -3350.40 L 13316.96 -3350.43 L 13316.95 -3350.35 L 13316.59 -3350.47 L 13316.22 -3350.44 L 13316.21 -3350.46 Z M 13316.16 -3350.40 L 13316.23 -3350.47 L 13316.62 -3350.49 L 13316.81 -3350.39 L 13316.95 -3350.44 L 13316.95 -3350.34 L 13316.60 -3350.47 L 13316.19 -3350.41 L 13316.16 -3350.40 Z M 13317.79 -3348.95 L 13317.86 -3349.05 L 13317.80 -3348.95 L 13317.79 -3348.95 Z M 13315.61 -3348.76 L 13315.50 -3348.97 L 13315.59 -3348.95 L 13315.65 -3348.77 L 13315.61 -3348.76 Z M 13316.19 -3348.90 L 13316.23 -3348.94 L 13316.27 -3348.89 L 13316.19 -3348.90 L 13316.19 -3348.90 Z M 13315.17 -3348.87 L 13315.24 -3349.01 L 13315.30 -3348.89 L 13315.18 -3348.86 L 13315.17 -3348.87 Z M 13319.29 -3349.64 L 13319.18 -3349.58 L 13318.92 -3349.70 L 13319.29 -3349.65 L 13319.29 -3349.64 Z M 13323.41 -3352.82 L 13323.24 -3352.84 L 13323.34 -3352.99 L 13323.41 -3352.83 L 13323.41 -3352.82 Z M 13323.44 -3352.82 L 13323.30 -3352.83 L 13323.29 -3352.98 L 13323.54 -3352.84 L 13323.51 -3352.81 L 13323.44 -3352.82 Z M 13323.11 -3352.38 L 13322.94 -3352.55 L 13322.99 -3352.66 L 13322.91 -3352.76 L 13323.27 -3352.79 L 13323.10 -3352.41 L 13323.11 -3352.38 Z M 13322.50 -3352.51 L 13322.46 -3352.50 L 13322.45 -3352.69 L 13322.58 -3352.61 L 13322.51 -3352.52 L 13322.50 -3352.51 Z M 13322.11 -3352.72 L 13322.14 -3352.67 L 13322.06 -3352.69 L 13322.11 -3352.73 L 13322.11 -3352.72 Z M 13322.64 -3354.67 L 13322.60 -3354.68 L 13322.67 -3354.76 L 13322.73 -3354.70 L 13322.67 -3354.67 L 13322.64 -3354.67 Z M 13324.00 -3357.36 L 13323.92 -3357.38 L 13323.77 -3357.59 L 13323.79 -3357.65 L 13323.66 -3357.81 L 13323.56 -3358.12 L 13323.66 -3358.03 L 13323.64 -3357.95 L 13323.81 -3357.59 L 13323.99 -3357.37 L 13324.00 -3357.36 Z M 13324.44 -3354.80 L 13324.68 -3354.87 L 13324.63 -3354.74 L 13324.68 -3354.75 L 13324.68 -3354.68 L 13324.46 -3354.79 L 13324.44 -3354.80 Z M 13324.54 -3354.69 L 13324.65 -3354.81 L 13324.68 -3354.71 L 13324.56 -3354.70 L 13324.54 -3354.69 Z M 13323.74 -3354.91 L 13324.06 -3354.74 L 13324.45 -3354.66 L 13324.65 -3354.81 L 13324.67 -3354.71 L 13324.59 -3354.71 L 13324.46 -3354.61 L 13324.23 -3354.60 L 13323.76 -3354.89 L 13323.74 -3354.91 Z M 13324.23 -3354.60 L 13323.99 -3354.73 L 13323.78 -3354.87 L 13323.82 -3354.89 L 13324.06 -3354.74 L 13324.45 -3354.66 L 13324.65 -3354.81 L 13324.68 -3354.71 L 13324.55 -3354.69 L 13324.45 -3354.61 L 13324.28 -3354.62 L 13324.23 -3354.60 Z M 13324.67 -3354.72 L 13323.96 -3354.47 L 13323.59 -3354.61 L 13323.60 -3354.65 L 13323.69 -3354.63 L 13323.88 -3354.54 L 13324.11 -3354.60 L 13324.17 -3354.68 L 13324.46 -3354.67 L 13324.65 -3354.81 L 13324.67 -3354.73 L 13324.67 -3354.72 Z M 13324.43 -3353.26 L 13324.24 -3353.38 L 13324.46 -3353.44 L 13324.44 -3353.27 L 13324.43 -3353.26 Z M 13324.29 -3352.95 L 13324.25 -3353.12 L 13324.46 -3353.07 L 13324.30 -3352.95 L 13324.29 -3352.95 Z M 13324.28 -3352.92 L 13324.25 -3353.10 L 13324.00 -3353.37 L 13324.15 -3353.26 L 13324.22 -3353.13 L 13324.47 -3353.04 L 13324.28 -3352.92 L 13324.28 -3352.92 Z M 13324.09 -3352.59 L 13324.03 -3352.63 L 13324.15 -3352.58 L 13324.18 -3352.61 L 13324.23 -3352.45 L 13324.11 -3352.58 L 13324.09 -3352.59 Z M 13324.45 -3351.22 L 13324.49 -3351.16 L 13324.31 -3351.00 L 13323.90 -3350.96 L 13323.90 -3350.75 L 13323.82 -3350.87 L 13323.87 -3350.98 L 13324.02 -3351.04 L 13324.29 -3351.03 L 13324.44 -3351.18 L 13324.45 -3351.22 Z M 13324.44 -3351.18 L 13324.49 -3351.16 L 13324.30 -3350.99 L 13324.04 -3351.00 L 13323.89 -3350.95 L 13323.82 -3350.79 L 13323.73 -3350.80 L 13323.87 -3350.98 L 13324.04 -3351.04 L 13324.28 -3351.03 L 13324.43 -3351.16 L 13324.44 -3351.18 Z M 13324.19 -3350.98 L 13324.20 -3351.05 L 13324.26 -3350.99 L 13324.21 -3350.98 L 13324.19 -3350.98 Z M 13323.75 -3352.60 L 13323.71 -3352.71 L 13323.83 -3352.68 L 13323.77 -3352.62 L 13323.75 -3352.60 Z M 13323.32 -3352.86 L 13323.49 -3352.97 L 13323.50 -3352.81 L 13323.28 -3352.84 L 13323.32 -3352.86 Z M 13322.51 -3352.41 L 13322.59 -3352.39 L 13322.59 -3352.34 L 13322.42 -3352.38 L 13322.33 -3352.49 L 13322.49 -3352.41 L 13322.51 -3352.41 Z M 13322.68 -3351.67 L 13322.77 -3352.03 L 13322.55 -3352.10 L 13322.49 -3352.17 L 13322.55 -3352.35 L 13322.43 -3352.36 L 13322.33 -3352.49 L 13322.45 -3352.40 L 13322.53 -3352.44 L 13322.58 -3352.41 L 13322.53 -3352.16 L 13322.80 -3352.01 L 13322.79 -3351.82 L 13322.70 -3351.70 L 13322.68 -3351.67 Z M 13321.92 -3352.51 L 13321.86 -3352.69 L 13322.00 -3352.64 L 13321.93 -3352.54 L 13321.92 -3352.51 Z M 13322.00 -3352.64 L 13321.93 -3352.54 L 13321.87 -3352.63 L 13321.71 -3353.17 L 13321.85 -3352.98 L 13321.86 -3352.74 L 13321.91 -3352.68 L 13322.00 -3352.64 Z M 13321.96 -3352.58 L 13321.92 -3352.51 L 13321.83 -3352.83 L 13321.75 -3352.91 L 13321.77 -3353.00 L 13321.87 -3352.95 L 13321.86 -3352.73 L 13322.00 -3352.64 L 13321.97 -3352.60 L 13321.96 -3352.58 Z M 13321.36 -3352.51 L 13321.28 -3352.53 L 13321.37 -3352.87 L 13321.38 -3352.54 L 13321.36 -3352.51 Z M 13324.19 -3353.68 L 13324.44 -3353.86 L 13324.61 -3353.57 L 13324.23 -3353.68 L 13324.19 -3353.68 Z M 13324.35 -3353.87 L 13324.33 -3353.82 L 13324.01 -3353.92 L 13324.24 -3354.04 L 13324.35 -3353.98 L 13324.35 -3353.89 L 13324.35 -3353.87 Z M 13323.71 -3354.10 L 13323.62 -3353.98 L 13323.62 -3354.14 L 13323.69 -3354.11 L 13323.71 -3354.10 Z M 13322.30 -3353.93 L 13322.20 -3353.95 L 13322.40 -3354.02 L 13322.53 -3354.17 L 13322.85 -3354.14 L 13322.91 -3354.02 L 13322.59 -3353.94 L 13322.30 -3353.93 Z M 13322.10 -3354.80 L 13322.08 -3354.84 L 13322.17 -3354.84 L 13322.12 -3354.81 L 13322.10 -3354.80 Z M 13321.06 -3356.36 L 13321.08 -3356.41 L 13321.08 -3356.36 L 13321.06 -3356.36 Z M 13323.68 -3352.77 L 13323.49 -3352.81 L 13323.61 -3352.95 L 13323.71 -3352.76 L 13323.68 -3352.77 Z M 13328.49 -3357.17 L 13328.39 -3357.12 L 13328.30 -3357.27 L 13328.35 -3357.62 L 13328.13 -3357.85 L 13328.22 -3358.00 L 13328.16 -3357.84 L 13328.38 -3357.64 L 13328.35 -3357.56 L 13328.41 -3357.23 L 13328.55 -3357.19 L 13328.49 -3357.17 Z M 13325.54 -3356.84 L 13325.46 -3356.89 L 13325.82 -3357.06 L 13325.85 -3357.03 L 13325.77 -3356.99 L 13325.70 -3356.80 L 13325.56 -3356.83 L 13325.54 -3356.84 Z M 13329.67 -3357.53 L 13329.86 -3357.61 L 13330.03 -3357.39 L 13329.80 -3357.52 L 13329.69 -3357.52 L 13329.67 -3357.53 Z M 13328.44 -3357.15 L 13328.36 -3357.12 L 13328.30 -3357.29 L 13328.35 -3357.62 L 13328.18 -3357.77 L 13328.21 -3357.83 L 13328.33 -3357.85 L 13328.25 -3357.73 L 13328.38 -3357.64 L 13328.35 -3357.55 L 13328.39 -3357.31 L 13328.48 -3357.16 L 13328.44 -3357.15 Z M 13328.44 -3357.15 L 13328.39 -3357.12 L 13328.30 -3357.28 L 13328.35 -3357.62 L 13328.20 -3357.74 L 13328.07 -3357.94 L 13327.90 -3358.04 L 13327.83 -3358.20 L 13327.89 -3358.28 L 13327.94 -3358.02 L 13328.06 -3358.03 L 13328.19 -3357.79 L 13328.38 -3357.65 L 13328.35 -3357.55 L 13328.47 -3357.16 L 13328.44 -3357.15 Z M 13328.43 -3357.14 L 13328.39 -3357.12 L 13328.30 -3357.28 L 13328.34 -3357.64 L 13328.21 -3357.73 L 13328.07 -3357.94 L 13327.91 -3358.03 L 13327.84 -3358.17 L 13327.71 -3358.25 L 13327.61 -3358.51 L 13327.77 -3358.27 L 13327.90 -3358.19 L 13327.95 -3358.02 L 13328.07 -3358.02 L 13328.23 -3357.75 L 13328.38 -3357.65 L 13328.35 -3357.55 L 13328.42 -3357.22 L 13328.49 -3357.17 L 13328.45 -3357.15 L 13328.43 -3357.14 Z M 13328.44 -3357.15 L 13328.36 -3357.12 L 13328.31 -3357.27 L 13328.35 -3357.63 L 13328.19 -3357.75 L 13328.07 -3357.94 L 13327.90 -3358.03 L 13327.83 -3358.19 L 13327.71 -3358.25 L 13327.63 -3358.46 L 13326.93 -3358.49 L 13326.85 -3358.52 L 13326.92 -3358.56 L 13327.09 -3358.59 L 13327.64 -3358.49 L 13327.74 -3358.31 L 13327.90 -3358.19 L 13327.94 -3358.02 L 13328.10 -3357.99 L 13328.23 -3357.75 L 13328.35 -3357.67 L 13328.41 -3357.26 L 13328.55 -3357.19 L 13328.47 -3357.16 L 13328.44 -3357.15 Z M 13328.39 -3357.13 L 13328.30 -3357.28 L 13328.35 -3357.63 L 13328.06 -3357.94 L 13327.94 -3358.00 L 13327.61 -3358.46 L 13327.52 -3358.50 L 13327.09 -3358.40 L 13326.98 -3358.70 L 13327.64 -3358.49 L 13327.77 -3358.27 L 13327.89 -3358.19 L 13327.93 -3358.06 L 13328.06 -3358.03 L 13328.16 -3357.83 L 13328.35 -3357.67 L 13328.39 -3357.31 L 13328.49 -3357.17 L 13328.44 -3357.15 L 13328.39 -3357.13 Z M 13328.43 -3357.15 L 13328.36 -3357.12 L 13328.30 -3357.29 L 13328.34 -3357.64 L 13328.21 -3357.73 L 13328.07 -3357.94 L 13327.62 -3358.19 L 13327.90 -3358.11 L 13327.94 -3358.03 L 13328.06 -3358.03 L 13328.23 -3357.75 L 13328.37 -3357.66 L 13328.39 -3357.31 L 13328.49 -3357.17 L 13328.44 -3357.15 L 13328.43 -3357.15 Z M 13327.76 -3356.47 L 13327.68 -3356.63 L 13327.47 -3356.79 L 13327.68 -3356.82 L 13327.70 -3356.68 L 13327.80 -3356.54 L 13327.77 -3356.51 L 13327.76 -3356.47 Z M 13327.56 -3356.70 L 13327.45 -3356.79 L 13327.61 -3356.82 L 13327.56 -3356.72 L 13327.56 -3356.70 Z M 13325.40 -3356.96 L 13325.40 -3356.90 L 13325.31 -3356.94 L 13325.33 -3357.06 L 13325.48 -3357.13 L 13325.52 -3357.21 L 13325.41 -3356.98 L 13325.40 -3356.96 Z M 13318.92 -3351.20 L 13318.78 -3351.29 L 13318.77 -3351.53 L 13318.68 -3351.63 L 13318.17 -3351.76 L 13318.12 -3351.79 L 13318.17 -3351.85 L 13318.13 -3351.89 L 13318.01 -3351.89 L 13317.96 -3351.96 L 13318.02 -3352.09 L 13317.92 -3352.26 L 13317.97 -3352.31 L 13318.06 -3352.12 L 13317.98 -3351.98 L 13318.02 -3351.92 L 13318.16 -3351.91 L 13318.16 -3351.79 L 13318.59 -3351.69 L 13318.77 -3351.60 L 13318.79 -3351.35 L 13318.90 -3351.23 L 13318.92 -3351.20 Z M 13322.26 -3353.91 L 13322.52 -3354.17 L 13322.84 -3354.15 L 13322.91 -3354.02 L 13322.27 -3353.91 L 13322.26 -3353.91 Z" />
  </g>
  <g id="hazard-landslide-special" fill="#ef4444" fill-opacity="0.35" stroke="#991b1b" stroke-opacity="0.90" stroke-width="0.12" pointer-events="none">

  </g>
</svg>
